<mxfile host="app.diagrams.net" agent="Mozilla/5.0 (Windows NT 10.0; Win64; x64) AppleWebKit/537.36 (KHTML, like Gecko) Chrome/128.0.0.0 Safari/537.36 OPR/114.0.0.0" version="25.0.3">
  <diagram name="Page-1" id="WhrE2diurQmdPV8FSuif">
    <mxGraphModel dx="1009" dy="573" grid="1" gridSize="10" guides="1" tooltips="1" connect="1" arrows="1" fold="1" page="1" pageScale="1" pageWidth="850" pageHeight="1100" math="0" shadow="0">
      <root>
        <mxCell id="0" />
        <mxCell id="1" parent="0" />
        <mxCell id="7J_ITMLs-yyCTj1aKJfO-10" style="edgeStyle=orthogonalEdgeStyle;rounded=0;orthogonalLoop=1;jettySize=auto;html=1;entryX=0.5;entryY=0;entryDx=0;entryDy=0;" edge="1" parent="1" source="7J_ITMLs-yyCTj1aKJfO-1" target="7J_ITMLs-yyCTj1aKJfO-2">
          <mxGeometry relative="1" as="geometry">
            <Array as="points">
              <mxPoint x="430" y="100" />
              <mxPoint x="425" y="100" />
            </Array>
          </mxGeometry>
        </mxCell>
        <mxCell id="7J_ITMLs-yyCTj1aKJfO-1" value="START" style="ellipse;whiteSpace=wrap;html=1;" vertex="1" parent="1">
          <mxGeometry x="360" y="20" width="140" height="60" as="geometry" />
        </mxCell>
        <mxCell id="7J_ITMLs-yyCTj1aKJfO-2" value="TAKE INPUT FROM USER" style="shape=parallelogram;perimeter=parallelogramPerimeter;whiteSpace=wrap;html=1;fixedSize=1;" vertex="1" parent="1">
          <mxGeometry x="325" y="120" width="200" height="60" as="geometry" />
        </mxCell>
        <mxCell id="7J_ITMLs-yyCTj1aKJfO-12" style="edgeStyle=orthogonalEdgeStyle;rounded=0;orthogonalLoop=1;jettySize=auto;html=1;entryX=0.5;entryY=0;entryDx=0;entryDy=0;" edge="1" parent="1" source="7J_ITMLs-yyCTj1aKJfO-3" target="7J_ITMLs-yyCTj1aKJfO-5">
          <mxGeometry relative="1" as="geometry">
            <Array as="points">
              <mxPoint x="420" y="310" />
              <mxPoint x="420" y="310" />
            </Array>
          </mxGeometry>
        </mxCell>
        <mxCell id="7J_ITMLs-yyCTj1aKJfO-3" value="REMAINDER=NUM%2" style="rounded=0;whiteSpace=wrap;html=1;" vertex="1" parent="1">
          <mxGeometry x="330" y="220" width="160" height="60" as="geometry" />
        </mxCell>
        <mxCell id="7J_ITMLs-yyCTj1aKJfO-14" style="edgeStyle=orthogonalEdgeStyle;rounded=0;orthogonalLoop=1;jettySize=auto;html=1;exitX=0;exitY=0.5;exitDx=0;exitDy=0;entryX=0.5;entryY=0;entryDx=0;entryDy=0;" edge="1" parent="1" source="7J_ITMLs-yyCTj1aKJfO-5" target="7J_ITMLs-yyCTj1aKJfO-6">
          <mxGeometry relative="1" as="geometry" />
        </mxCell>
        <mxCell id="7J_ITMLs-yyCTj1aKJfO-5" value="REMAINDER=0" style="rhombus;whiteSpace=wrap;html=1;" vertex="1" parent="1">
          <mxGeometry x="310" y="320" width="220" height="110" as="geometry" />
        </mxCell>
        <mxCell id="7J_ITMLs-yyCTj1aKJfO-16" style="edgeStyle=orthogonalEdgeStyle;rounded=0;orthogonalLoop=1;jettySize=auto;html=1;entryX=0;entryY=0.5;entryDx=0;entryDy=0;" edge="1" parent="1" source="7J_ITMLs-yyCTj1aKJfO-6" target="7J_ITMLs-yyCTj1aKJfO-8">
          <mxGeometry relative="1" as="geometry">
            <Array as="points">
              <mxPoint x="80" y="695" />
            </Array>
          </mxGeometry>
        </mxCell>
        <mxCell id="7J_ITMLs-yyCTj1aKJfO-6" value="EVEN" style="shape=parallelogram;perimeter=parallelogramPerimeter;whiteSpace=wrap;html=1;fixedSize=1;" vertex="1" parent="1">
          <mxGeometry x="30" y="500" width="120" height="60" as="geometry" />
        </mxCell>
        <mxCell id="7J_ITMLs-yyCTj1aKJfO-15" style="edgeStyle=orthogonalEdgeStyle;rounded=0;orthogonalLoop=1;jettySize=auto;html=1;entryX=1;entryY=0.5;entryDx=0;entryDy=0;" edge="1" parent="1" source="7J_ITMLs-yyCTj1aKJfO-7" target="7J_ITMLs-yyCTj1aKJfO-8">
          <mxGeometry relative="1" as="geometry">
            <Array as="points">
              <mxPoint x="700" y="695" />
            </Array>
          </mxGeometry>
        </mxCell>
        <mxCell id="7J_ITMLs-yyCTj1aKJfO-7" value="ODD" style="shape=parallelogram;perimeter=parallelogramPerimeter;whiteSpace=wrap;html=1;fixedSize=1;" vertex="1" parent="1">
          <mxGeometry x="640" y="500" width="120" height="60" as="geometry" />
        </mxCell>
        <mxCell id="7J_ITMLs-yyCTj1aKJfO-8" value="STOP" style="ellipse;whiteSpace=wrap;html=1;" vertex="1" parent="1">
          <mxGeometry x="350" y="660" width="150" height="70" as="geometry" />
        </mxCell>
        <mxCell id="7J_ITMLs-yyCTj1aKJfO-9" style="edgeStyle=orthogonalEdgeStyle;rounded=0;orthogonalLoop=1;jettySize=auto;html=1;exitX=0.5;exitY=1;exitDx=0;exitDy=0;" edge="1" parent="1" source="7J_ITMLs-yyCTj1aKJfO-1" target="7J_ITMLs-yyCTj1aKJfO-1">
          <mxGeometry relative="1" as="geometry" />
        </mxCell>
        <mxCell id="7J_ITMLs-yyCTj1aKJfO-11" style="edgeStyle=orthogonalEdgeStyle;rounded=0;orthogonalLoop=1;jettySize=auto;html=1;entryX=0.62;entryY=-0.037;entryDx=0;entryDy=0;entryPerimeter=0;" edge="1" parent="1" source="7J_ITMLs-yyCTj1aKJfO-2" target="7J_ITMLs-yyCTj1aKJfO-3">
          <mxGeometry relative="1" as="geometry">
            <Array as="points">
              <mxPoint x="430" y="200" />
            </Array>
          </mxGeometry>
        </mxCell>
        <mxCell id="7J_ITMLs-yyCTj1aKJfO-13" style="edgeStyle=orthogonalEdgeStyle;rounded=0;orthogonalLoop=1;jettySize=auto;html=1;exitX=1;exitY=0.5;exitDx=0;exitDy=0;entryX=0.59;entryY=0.083;entryDx=0;entryDy=0;entryPerimeter=0;" edge="1" parent="1" source="7J_ITMLs-yyCTj1aKJfO-5" target="7J_ITMLs-yyCTj1aKJfO-7">
          <mxGeometry relative="1" as="geometry" />
        </mxCell>
        <mxCell id="7J_ITMLs-yyCTj1aKJfO-17" value="YES" style="text;html=1;align=center;verticalAlign=middle;whiteSpace=wrap;rounded=0;" vertex="1" parent="1">
          <mxGeometry x="220" y="340" width="60" height="30" as="geometry" />
        </mxCell>
        <mxCell id="7J_ITMLs-yyCTj1aKJfO-18" value="NO" style="text;html=1;align=center;verticalAlign=middle;whiteSpace=wrap;rounded=0;" vertex="1" parent="1">
          <mxGeometry x="570" y="340" width="60" height="30" as="geometry" />
        </mxCell>
      </root>
    </mxGraphModel>
  </diagram>
</mxfile>
